<svg width="192" height="192" viewBox="0 0 192 192" fill="none" xmlns="http://www.w3.org/2000/svg">
  <defs>
    <linearGradient id="logoGradient" x1="96" y1="12" x2="96" y2="180" gradientUnits="userSpaceOnUse">
      <stop offset="0" stop-color="#5AC8FA" />
      <stop offset="1" stop-color="#147CDF" />
    </linearGradient>
    <linearGradient id="logoInner" x1="96" y1="32" x2="96" y2="160" gradientUnits="userSpaceOnUse">
      <stop offset="0" stop-color="#C9EEFF" stop-opacity="0.95" />
      <stop offset="1" stop-color="#77BFF4" stop-opacity="0.95" />
    </linearGradient>
  </defs>
  <path
    d="M96 12L18 72.5L47 168H145L174 72.5L96 12Z"
    fill="url(#logoGradient)"
  />
  <path
    d="M96 34L41.4 77.4L64.8 155H127.2L150.6 77.4L96 34Z"
    fill="url(#logoInner)"
  />
  <path
    d="M96 48L56.5 80.4L71.8 136H120.2L135.5 80.4L96 48Z"
    stroke="#1D4ED8"
    stroke-width="6"
    stroke-linejoin="round"
    fill="none"
  />
  <path
    d="M96 48V136"
    stroke="#1D4ED8"
    stroke-width="5"
    stroke-linecap="round"
  />
  <path
    d="M56.5 80.4L135.5 80.4"
    stroke="#1D4ED8"
    stroke-width="5"
    stroke-linecap="round"
  />
  <path
    d="M66.5 112H125.5"
    stroke="#1D4ED8"
    stroke-width="5"
    stroke-linecap="round"
  />
  <path
    d="M80 63L112 127"
    stroke="#1D4ED8"
    stroke-width="4.5"
    stroke-linecap="round"
  />
  <path
    d="M112 63L80 127"
    stroke="#1D4ED8"
    stroke-width="4.5"
    stroke-linecap="round"
  />
</svg>
