<svg xmlns="http://www.w3.org/2000/svg" width="1024" height="1024" viewBox="0 0 1024 1024">
<polygon points="512.00,152.00 854.38,400.75 723.60,803.25 300.40,803.25 169.62,400.75" fill="#6EC6FF" stroke="#1E88E5" stroke-width="20" stroke-linejoin="round"/>
<polygon points="512.00,224.00 785.90,423.00 681.28,745.00 342.72,745.00 238.10,423.00" fill="none" stroke="#1E88E5" stroke-width="12" stroke-linejoin="round"/>
<polygon points="512.00,296.00 717.43,445.25 638.96,686.75 385.04,686.75 306.57,445.25" fill="none" stroke="#1E88E5" stroke-width="12" stroke-linejoin="round"/>
<polygon points="512.00,368.00 648.95,467.50 596.64,628.50 427.36,628.50 375.05,467.50" fill="none" stroke="#1E88E5" stroke-width="12" stroke-linejoin="round"/>
<polygon points="512.00,440.00 580.48,489.75 554.32,570.25 469.68,570.25 443.52,489.75" fill="none" stroke="#1E88E5" stroke-width="12" stroke-linejoin="round"/>
<line x1="512.00" y1="512.00" x2="512.00" y2="152.00" stroke="#1E88E5" stroke-width="12" />
<line x1="512.00" y1="512.00" x2="854.38" y2="400.75" stroke="#1E88E5" stroke-width="12" />
<line x1="512.00" y1="512.00" x2="723.60" y2="803.25" stroke="#1E88E5" stroke-width="12" />
<line x1="512.00" y1="512.00" x2="300.40" y2="803.25" stroke="#1E88E5" stroke-width="12" />
<line x1="512.00" y1="512.00" x2="169.62" y2="400.75" stroke="#1E88E5" stroke-width="12" />
</svg>